<?xml version="1.0" encoding="UTF-8" standalone="no"?><!DOCTYPE svg PUBLIC "-//W3C//DTD SVG 1.1//EN" "http://www.w3.org/Graphics/SVG/1.1/DTD/svg11.dtd"><svg width="100%" height="100%" viewBox="0 0 512 512" version="1.1" xmlns="http://www.w3.org/2000/svg" xmlns:xlink="http://www.w3.org/1999/xlink" xml:space="preserve" xmlns:serif="http://www.serif.com/" style="fill-rule:evenodd;clip-rule:evenodd;stroke-linejoin:round;stroke-miterlimit:2;"><path d="M496,136c0,-66.23 -53.77,-120 -120,-120l-240,0c-66.23,0 -120,53.77 -120,120l0,240c0,66.23 53.77,120 120,120l240,0c66.23,0 120,-53.77 120,-120l0,-240Z" style="fill:#c2103c;"/><rect id="Artboard1" x="0" y="0" width="512" height="512" style="fill:none;"/><g id="Artboard11" serif:id="Artboard1"><path d="M274.346,250.092l-2.034,-65.635c-0.678,-13.558 -1.694,-27.117 -3.05,-40.675c-1.356,-13.559 -1.865,-23.111 -1.526,-28.658c0,-2.465 0.763,-9.553 2.288,-21.262c1.526,-11.71 5.085,-20.492 10.678,-26.347c5.592,-5.854 10.338,-9.552 14.236,-11.093c3.898,-1.541 13.643,-2.619 29.235,-3.235c6.102,-0 9.237,2.927 9.407,8.782c0.169,5.855 0.084,9.398 -0.255,10.631c-1.017,4.314 -3.05,6.471 -6.101,6.471l-24.405,3.698c-9.152,1.849 -14.83,5.084 -17.033,9.706c-2.203,4.622 -3.305,9.707 -3.305,15.254l0,13.866l32.032,-3.698c8.135,-0.616 13.05,0.308 14.745,2.774c1.017,2.465 1.695,6.163 2.034,11.093c5.423,-13.559 8.728,-22.649 9.914,-27.271c1.187,-4.622 2.373,-10.631 3.559,-18.027c1.187,-7.395 1.78,-14.483 1.78,-21.262c-0.339,-2.465 -0.509,-5.238 -0.509,-8.32l-1.525,-12.942c-0.339,-0.616 -0.339,-1.541 0,-2.773c0,-6.163 2.203,-9.553 6.61,-10.169c1.356,-0 2.627,0.77 3.813,2.311c1.186,1.541 2.797,8.474 4.83,20.8c28.473,-3.081 42.709,10.477 42.709,40.675c-0.339,5.547 -1.101,12.172 -2.288,19.876c-1.186,7.703 -4.237,14.329 -9.152,19.875c-4.914,5.547 -9.575,8.628 -13.982,9.245l-13.219,1.849c-1.695,2.465 -2.627,6.008 -2.797,10.631c-0.169,4.622 0.255,7.241 1.272,7.857c-0,0.617 6.863,1.849 20.591,3.698c13.728,1.849 20.677,6.317 20.847,13.404c0.169,7.088 -0.085,11.864 -0.763,14.329c-1.017,3.698 -3.051,5.239 -6.101,4.623l-12.711,-6.472l-24.914,-1.848c-7.796,-3.698 -11.525,-13.559 -11.186,-29.583c0,-6.779 1.187,-14.482 3.559,-23.111c2.373,-8.628 6.271,-14.482 11.694,-17.564l19.321,-5.547c2.712,-1.232 4.407,-2.927 5.085,-5.084c0.678,-2.157 1.017,-5.084 1.017,-8.782c-0.339,-7.396 -1.441,-13.25 -3.305,-17.564c-1.865,-4.315 -5.508,-5.855 -10.932,-4.623c-1.356,0.617 -4.067,0.771 -8.135,0.463c-4.067,-0.309 -6.779,0.462 -8.135,2.311c-1.017,1.232 -2.034,7.087 -3.051,17.564c-1.017,10.477 -2.542,18.797 -4.576,24.96l-10.168,25.884c-6.102,16.64 -11.017,24.652 -14.745,24.036c-4.068,-0 -5.932,-3.082 -5.593,-9.245c0.339,-7.395 2.542,-15.099 6.61,-23.111l-42.201,5.547l2.034,36.977c25.761,-4.93 40.336,-5.238 43.726,-0.924c2.033,3.698 3.135,7.241 3.305,10.631c0.169,3.39 -0.085,6.009 -0.763,7.858c-1.356,3.698 -3.39,5.546 -6.101,5.546l-6.61,0l-33.049,2.774l1.525,37.902c8.136,0.616 16.779,0.308 25.931,-0.925c7.118,0 11.864,1.079 14.236,3.236c2.373,2.157 4.237,5.701 5.593,10.631c6.44,-4.314 13.389,-5.701 20.846,-4.16c7.457,1.541 13.135,3.852 17.033,6.933c3.898,3.082 8.22,9.553 12.965,19.414c1.017,-6.78 1.526,-12.943 1.526,-18.489c-0.339,-22.187 -9.152,-33.588 -26.439,-34.205c-3.051,0 -7.457,1.079 -13.22,3.236c-5.762,2.157 -8.813,2.927 -9.152,2.311c-3.05,-0.616 -4.406,-4.006 -4.067,-10.169c-0,-15.407 9.66,-22.186 28.981,-20.337c10.847,1.848 18.389,4.622 22.626,8.32c4.237,3.697 7.711,10.322 10.423,19.875c2.711,9.553 4.237,17.872 4.576,24.96c0.339,7.087 0.508,11.864 0.508,14.329c-0.339,8.011 -2.118,16.948 -5.339,26.808c-3.22,9.861 -4.914,15.408 -5.084,16.64c-0.169,1.233 -0.085,2.774 0.254,4.623l0.509,26.808c0.339,11.71 1.695,27.271 4.067,46.685c2.373,19.413 5.424,35.282 9.152,47.608c3.729,12.326 5.254,20.646 4.576,24.96c-2.373,12.942 -5.932,16.024 -10.677,9.244c-3.051,-3.081 -6.525,-14.791 -10.423,-35.128c-3.898,-20.338 -6.186,-33.28 -6.864,-38.827c-0.678,-5.546 -1.186,-11.093 -1.525,-16.64l-3.56,-53.617c-2.711,1.849 -8.643,3.081 -17.795,3.698c-15.931,2.465 -24.744,0.924 -26.439,-4.623c-1.695,-5.546 -2.627,-9.398 -2.796,-11.555c-0.17,-2.157 0.254,-4.468 1.271,-6.933c1.017,-3.082 3.05,-4.931 6.101,-5.547c1.017,-0 6.694,0.616 17.033,1.849c10.338,1.232 16.524,0.154 18.558,-3.236c2.034,-3.389 3.051,-5.7 3.051,-6.933c-0.339,-3.081 -3.475,-6.779 -9.407,-11.093c-5.931,-4.314 -9.745,-6.471 -11.44,-6.471c-0.677,0.616 -2.881,1.694 -6.609,3.235c-3.729,1.541 -7.457,2.003 -11.186,1.387c-4.407,-0 -6.44,-4.622 -6.101,-13.867l-2.034,1.849l-39.659,1.849l-3.05,73.955c-0.678,14.175 -1.102,22.187 -1.271,24.036c-0.17,1.849 -1.017,11.247 -2.543,28.195c-1.525,16.948 -2.881,30.507 -4.067,40.675c-1.186,10.169 -3.474,14.946 -6.864,14.329c-1.017,0 -2.373,-0.616 -4.068,-1.849c-1.694,-1.232 -2.711,-2.773 -3.05,-4.622c-0.339,-1.849 -0.424,-2.927 -0.254,-3.235c0.169,-0.309 0.593,-4.777 1.271,-13.405l8.643,-123.875l0.509,-32.355c-2.034,0.616 -4.153,1.387 -6.356,2.311c-2.203,0.924 -3.474,1.078 -3.813,0.462c-4.068,0 -6.102,-3.081 -6.102,-9.244c0,-6.163 0.17,-10.169 0.509,-12.018c0.339,-1.232 1.017,-2.619 2.034,-4.16c1.017,-1.541 5.762,-3.544 14.236,-6.009Z" style="fill:#fff;fill-rule:nonzero;"/><g><path d="M170.156,128.789l0,-7.305l-1.289,-14.609c-0.429,-6.875 -1.611,-11.1 -3.545,-12.676c-1.933,-1.575 -4.834,-2.506 -8.701,-2.793l-7.09,-0.859l-25.781,1.289c-7.305,-0.859 -12.246,-2.865 -14.824,-6.016c-2.578,-3.151 -3.975,-6.875 -4.19,-11.172c-0.215,-4.296 1.397,-8.307 4.834,-12.031c2.149,-2.578 6.768,-5.443 13.858,-8.594c7.09,-3.151 25.459,-4.726 55.107,-4.726c28.36,0.286 44.365,1.074 48.018,2.363c3.652,1.289 5.586,2.936 5.801,4.942c0.214,2.005 -0.108,3.294 -0.967,3.867c-1.719,1.146 -3.653,1.575 -5.801,1.289l-32.227,-0.86c-1.289,0 -8.486,0.144 -21.591,0.43c-13.106,0.287 -22.666,0.645 -28.682,1.074c-6.016,0.43 -10.313,1.146 -12.891,2.149c-2.578,1.002 -4.619,2.435 -6.123,4.297c-1.504,1.862 -2.363,3.652 -2.578,5.371c-0.215,1.719 0.322,3.008 1.611,3.867c0.86,1.146 2.149,1.719 3.868,1.719l15.468,-1.289l3.223,-0c16.328,0.573 26.426,2.649 30.293,6.23c3.867,3.581 6.768,9.238 8.701,16.973c1.934,7.734 2.901,14.466 2.901,20.195l-0,6.445c1.718,-0.286 3.222,-0.716 4.511,-1.289l19.981,-6.445c7.304,-2.005 8.808,-6.445 4.511,-13.32c-4.296,-6.875 -6.552,-10.742 -6.767,-11.602c-0.215,-0.859 0.537,-2.148 2.256,-3.867c2.148,-2.005 4.511,-3.151 7.09,-3.438c4.726,-0.286 7.519,2.435 8.379,8.165l4.511,31.796l1.934,34.805l-1.289,8.594c-0.43,0.286 -0.537,2.435 -0.322,6.445c0.214,4.011 -0.323,8.451 -1.612,13.32c-1.289,4.584 -2.363,9.668 -3.222,15.254c-0.86,5.586 -2.579,9.239 -5.157,10.957c-2.578,1.719 -5.156,2.578 -7.734,2.579c-3.008,0.286 -5.156,-0.287 -6.445,-1.719c-1.289,-1.433 -1.719,-2.865 -1.289,-4.297l0.644,-1.719c0,0 0.215,-0.859 0.645,-2.578l6.445,-25.352l1.933,-34.804l-1.289,-18.047c-11.601,4.583 -20.839,7.305 -27.714,8.164l-0,9.453l-3.868,29.219l-3.222,10.742c-2.149,6.016 -3.867,10.599 -5.157,13.75l-8.378,18.047c-6.446,12.031 -12.891,18.047 -19.336,18.047c-3.008,0.286 -4.942,-0.143 -5.801,-1.289c-0.859,-1.146 -1.182,-2.292 -0.967,-3.438c0.215,-1.146 0.537,-2.148 0.967,-3.008l18.047,-36.093l1.289,-3.008c2.148,-5.729 3.652,-10.742 4.512,-15.039c0.859,-4.297 1.718,-9.955 2.578,-16.973c0.859,-7.018 1.504,-11.243 1.933,-12.676l0,-7.304l-29.648,-3.438l-5.156,22.774c-0.43,1.145 -3.545,8.092 -9.346,20.839c-5.801,12.748 -10.205,20.84 -13.213,24.278c-3.008,3.437 -6.445,5.156 -10.313,5.156c-4.726,0 -7.089,-1.432 -7.089,-4.297l-0,-2.148l18.691,-34.805l2.578,-6.016c1.719,-4.01 3.545,-10.813 5.479,-20.41c1.933,-9.596 3.115,-15.254 3.545,-16.972l-0.645,-19.766c0.859,-2.292 2.256,-3.867 4.19,-4.727c1.933,-0.859 3.544,-1.289 4.833,-1.289c5.586,0.86 8.272,4.512 8.057,10.957c-0.215,6.446 -0.215,10.313 0,11.602c0.215,1.289 0.215,2.005 0,2.148c-0.215,0.144 -0.107,0.215 0.322,0.215c0,1.432 9.239,2.865 27.715,4.297Z" style="fill:#fff;fill-rule:nonzero;"/><path d="M172.734,283.477c23.203,2.291 39.746,7.591 49.629,15.898c9.883,8.307 16.114,14.395 18.692,18.262c2.578,3.867 5.263,9.238 8.056,16.113c2.793,6.875 3.975,12.031 3.545,15.469c-0.859,5.442 -4.297,8.164 -10.312,8.164c-1.289,0.286 -2.471,0.215 -3.545,-0.215c-1.074,-0.43 -2.041,-1.146 -2.901,-2.148c-0.859,-1.003 -1.826,-4.512 -2.9,-10.528c-1.074,-6.015 -4.082,-12.89 -9.023,-20.625c-4.942,-7.734 -8.057,-11.601 -9.346,-11.601c-2.149,0.286 -7.305,2.148 -15.469,5.586c-8.164,3.437 -14.824,6.588 -19.98,9.453c9.453,7.734 16.543,15.039 21.269,21.914c4.727,6.875 8.272,13.821 10.635,20.84c2.363,7.018 3.975,11.673 4.834,13.964l4.512,22.344l3.867,36.953c-0,1.719 -0.108,5.085 -0.322,10.098c-0.215,5.013 -0.86,8.307 -1.934,9.883c-1.074,1.575 -3.545,2.363 -7.412,2.363c-4.297,0.287 -6.875,-0.143 -7.734,-1.289c-0.86,-1.146 -1.29,-2.865 -1.29,-5.156l-3.222,-39.102l-4.512,-29.648c-2.148,-11.745 -5.478,-21.055 -9.99,-27.93c-4.512,-6.875 -8.916,-12.747 -13.213,-17.617c-4.297,-4.87 -6.875,-7.376 -7.734,-7.52c-0.86,-0.143 -1.504,0.215 -1.934,1.075c-0.43,0.572 -2.686,2.649 -6.768,6.23c-4.082,3.581 -8.701,10.241 -13.857,19.98c-5.156,9.74 -8.379,17.761 -9.668,24.063l-5.156,23.203l-3.223,39.961l0.645,5.586c-0.43,1.719 -1.397,3.366 -2.901,4.941c-1.504,1.576 -3.545,2.364 -6.123,2.364c-3.008,0.286 -5.586,-0.716 -7.734,-3.008c-2.149,-2.292 -3.33,-4.798 -3.545,-7.52c-0.215,-2.721 -0.107,-4.368 0.322,-4.941l1.289,-23.633l0,-4.726c0,-1.719 0.43,-4.727 1.289,-9.024l3.868,-20.625c3.437,-16.328 8.808,-29.792 16.113,-40.391c7.304,-10.598 12.676,-17.044 16.113,-19.335c3.438,-2.292 5.156,-3.581 5.156,-3.868c-0.429,-0.286 -5.156,-2.721 -14.179,-7.304c-9.024,-4.584 -16.543,-6.875 -22.559,-6.875c-2.148,0.286 -4.512,2.148 -7.09,5.586c-2.578,3.437 -3.867,5.586 -3.867,6.445l-7.734,19.336c-3.008,7.161 -6.446,10.742 -10.313,10.742c-1.719,0.287 -3.76,-0.072 -6.123,-1.074c-2.363,-1.003 -3.545,-2.936 -3.545,-5.801c0,-1.432 0.108,-2.721 0.322,-3.867c0.215,-1.146 1.719,-5.586 4.512,-13.32c2.793,-7.735 4.942,-12.963 6.445,-15.684c1.504,-2.721 4.512,-5.801 9.024,-9.238c4.512,-3.438 10.635,-7.09 18.369,-10.957c7.734,-3.868 16.006,-6.732 24.814,-8.594c8.809,-1.862 13.75,-3.438 14.825,-4.727c1.074,-1.289 1.611,-3.079 1.611,-5.371l-1.289,-8.593c-0.43,-0 -0.43,-0.144 -0,-0.43c-0,-0.287 0.752,-1.218 2.256,-2.793c1.504,-1.576 3.76,-2.363 6.767,-2.363c3.008,0.286 5.372,1.289 7.09,3.007c1.719,1.719 2.793,4.584 3.223,8.594l-0,5.156l-0.645,3.868Zm-45.761,20.625c6.875,1.145 12.031,2.291 15.468,3.437l10.313,4.727c5.586,2.291 8.809,3.867 9.668,4.726c0.859,0.86 1.719,1.146 2.578,0.86c0,-0 0.645,-0.359 1.934,-1.075c1.289,-0.716 6.982,-3.151 17.08,-7.304c10.097,-4.154 15.576,-6.374 16.435,-6.66c-2.578,-0.287 -7.949,-1.719 -16.113,-4.297c-8.164,-2.579 -14.072,-3.796 -17.725,-3.653c-3.652,0.144 -6.767,0.788 -9.345,1.934l-23.203,4.726l-7.09,2.579Z" style="fill:#fff;fill-rule:nonzero;"/></g></g></svg>